<?xml version="1.0"?>
<svg xmlns="http://www.w3.org/2000/svg" viewBox="0 0 512 512" width="512" height="512"><g id="outline"><path d="M472,389.333V280a8,8,0,0,0-2.343-5.657L427.314,232H456a8,8,0,0,0,7.311-4.751l32-72a8,8,0,0,0-5.371-11.01l-32-8a8,8,0,0,0-9.095,4.183L427.056,184H336a8,8,0,0,0-8,8v32a8,8,0,0,0,8,8h28.686L424,291.314V389.1L388.253,432H336.985l.955-.239a8,8,0,0,0,5.65-10.291l-8-24A8,8,0,0,0,328,392H302.11L279.718,309.9a8.031,8.031,0,0,0-.563-1.473L240,230.111V206.04l14.922,8.842A7.991,7.991,0,0,0,259,216h22a8,8,0,0,0,7.832-6.368l5-24a8,8,0,0,0-6.84-9.57l-20.805-2.6-18.447-22.75a30.131,30.131,0,0,0-.043-30.765L232,93.783V88h2a14.015,14.015,0,0,0,14-14V44.292a26.315,26.315,0,0,0-2.764-11.709A29.813,29.813,0,0,0,219.73,16.046,5,5,0,0,0,219,16H192.971a48.653,48.653,0,0,0-34.628,14.343A32.756,32.756,0,0,1,135.029,40H112a8,8,0,0,0-5.657,13.657l12,12A48.653,48.653,0,0,0,152.971,80H155.6a48.809,48.809,0,0,0,27.164-8.225L184,70.948V88a8.015,8.015,0,0,0-1.378.127,30.391,30.391,0,0,0-18.906,8.844L128.2,132.486a27.818,27.818,0,0,0-8.2,19.8v.475a28.053,28.053,0,0,0,6.49,17.925l35.364,42.438A8,8,0,0,0,168,216H173.8a68.294,68.294,0,0,0,.825,26.841L153.1,307.41,91.944,360.919,69.47,368.411a7.994,7.994,0,0,0-4.625,4.011l-8,16a8,8,0,0,0,.3,7.694L78.67,432H48a32,32,0,0,0,0,64H488a8,8,0,0,0,8-8V424a8,8,0,0,0-1.6-4.8ZM240,166.569l15.786,19.47a8,8,0,0,0,5.222,2.9l15.39,1.924L274.5,200h-13.3L240,187.441Zm24.49,148.3,21.642,79.352-17.463,4.365L251.52,358.571A124.53,124.53,0,0,1,245.2,339.8l-5.434-21.738a8,8,0,0,0-1.251-2.71l-39.635-55.489-4.406-8.811a53.588,53.588,0,0,1-3.757-9.837c-.037-.149-.078-.3-.124-.442A52.538,52.538,0,0,1,190.079,216H224v16a7.994,7.994,0,0,0,.845,3.578ZM261.754,432H113.3l1.232-.411A8,8,0,0,0,120,424V396.281l68.438-45.625a8,8,0,0,0,2.916-3.5l18.828-43.933,14.425,20.2,5.067,20.266a140.57,140.57,0,0,0,7.138,21.193L256.4,410.566ZM203.1,200s4.9-15.161,4.9-16h16v16Zm30.877-71.823a14.027,14.027,0,0,1,1.881,8.841A7.973,7.973,0,0,0,224,144v24H192V149.766l18.53-6.177A8,8,0,0,0,216,136V118.627A30.439,30.439,0,0,0,212.275,104h7.2ZM200,50.77a17.883,17.883,0,0,1,5.273-12.73l1.028-1.027A17,17,0,0,1,218.4,32a13.935,13.935,0,0,1,9.081,3.336l-15.223,5.075a8,8,0,0,0-4.626,4.011L201.846,56H200ZM200,72h6.79a8,8,0,0,0,7.155-4.422l6.519-13.036L232,50.7V72h-8a8,8,0,0,0-8,8v8H200ZM173.884,58.463A32.871,32.871,0,0,1,155.6,64h-2.624a32.725,32.725,0,0,1-21.533-8h3.591a48.653,48.653,0,0,0,34.628-14.343,32.72,32.72,0,0,1,19.869-9.477A33.764,33.764,0,0,0,184,50.77v.949ZM171.747,200l-32.966-39.559A12.026,12.026,0,0,1,136,152.759v-.475a11.919,11.919,0,0,1,3.515-8.485l35.515-35.515A14.627,14.627,0,0,1,200,118.627v11.607l-13.839,4.613-4.5-4.5a8,8,0,0,0-11.314,0l-16,16a8,8,0,0,0-1,10.095l16,24a7.991,7.991,0,0,0,4.126,3.151l16.411,5.471L186.234,200ZM176,147.314v14.264l-5.706-8.558ZM165.268,318.021a8,8,0,0,0,2.322-3.491l16.292-48.877.963,1.925a7.874,7.874,0,0,0,.645,1.072L199.3,287.986l-21.718,50.677-63.365,42.243L106.548,369.4ZM73.119,391.65l4.555-9.108,15.059-5.02L104,394.422v23.812l-12.441,4.147ZM48,480a16,16,0,1,1,16-16A16.019,16.019,0,0,1,48,480Zm100.305,0H75.695a31.885,31.885,0,0,0,0-32h72.61a31.885,31.885,0,0,0,0,32ZM176,480a16,16,0,1,1,16-16A16.019,16.019,0,0,1,176,480Zm100.305,0H203.7a31.885,31.885,0,0,0,0-32h68.253l.046,0,.032,0h4.279a31.885,31.885,0,0,0,0,32ZM304,480a16,16,0,1,1,16-16A16.019,16.019,0,0,1,304,480Zm-26.179-49.7-4.12-16.477L296.985,408h25.249l3.445,10.334ZM384,480H331.7a31.885,31.885,0,0,0,0-32H384ZM344,216V200h88a8,8,0,0,0,7.155-4.422l21.13-42.261,16.537,4.135L450.8,216Zm43.313,16h17.374L456,283.314V384H440V288a8,8,0,0,0-2.343-5.657ZM480,480H400V442.9L435.747,400H460l20,26.667Z"/></g></svg>
