<?xml version="1.0"?>
<svg xmlns="http://www.w3.org/2000/svg" viewBox="0 0 512 512" width="512" height="512"><g id="outline"><path d="M40,416H472a24.029,24.029,0,0,0,24-23.589C496.223,378.987,484.881,368,471.454,368h-102.2l61.635-72.842a165.967,165.967,0,0,0,13.293-18.091c.424-.517,9.226-16.034,12.46-23.576l7.268-16.962a64.477,64.477,0,0,0,3.27-40.812L459.3,164.2l10.174,3.391a8,8,0,0,0,8.187-1.932l8-8A8,8,0,0,0,488,152V128a8,8,0,0,0-4.422-7.156l-14.839-7.419L450.414,95.1A24.241,24.241,0,0,0,433.273,88h-1.026a24.191,24.191,0,0,0-18.035,8.062,33.735,33.735,0,0,0-19.156,7.152,33.322,33.322,0,0,0-10.7,15.368L376.41,141.47a8,8,0,0,0,.162,5.5L384,165.541V184a8,8,0,0,0,8,8h16v9.062l-7.805,1.115h0l-29.118,4.159A31.537,31.537,0,0,0,344,237.556v32.228L326.412,299.1l-78.664-78.664a42.451,42.451,0,0,0-64.562,5.343l-68.844,96.38L92.716,336.575,62.06,344.239A8,8,0,0,0,56,352v16H40.546C27.119,368,15.777,378.987,16,392.411A24.029,24.029,0,0,0,40,416ZM408,113.88v10.806l-5.975-5.975A17.727,17.727,0,0,1,408,113.88ZM400,176V164a8,8,0,0,0-.572-2.971l-6.911-17.279,2.979-8.94,12.5,12.5V176Zm2.927,61.277,4.834-19.337.045-.186.116-.519,9.21-1.316A8,8,0,0,0,424,208V112.247A8.256,8.256,0,0,1,432.247,104h1.026a8.186,8.186,0,0,1,5.827,2.413l19.243,19.244a7.986,7.986,0,0,0,2.079,1.5L472,132.944v15.742l-2.16,2.161-4.594-1.531-15.138-14.858a8,8,0,0,0-13.275,7.977l14.82,57.164a48.39,48.39,0,0,1-2.455,30.628l-7.268,16.961a150.1,150.1,0,0,1-8.5,16.812h-9.64a21.506,21.506,0,0,1-20.865-26.723ZM358.86,276.116A8.009,8.009,0,0,0,360,272V237.556a15.542,15.542,0,0,1,13.339-15.381l17.5-2.5-3.43,13.72a37.483,37.483,0,0,0,35.187,46.567c-1.279,1.647-2.58,3.274-3.922,4.859l-61.618,72.823L355.611,349a78.1,78.1,0,0,0-17.671-38.021ZM196.205,235.077a26.451,26.451,0,0,1,40.229-3.329l85.909,85.909a62.248,62.248,0,0,1,17.485,33.978L342.557,368H300L222.656,259.562a8,8,0,0,0-13.516.322L185.646,299.04,144,340.686l-13.551-13.551ZM280,368H147.1l3.893-11.679,46.664-46.664a8.05,8.05,0,0,0,1.2-1.541l17.495-29.16ZM72,358.246l25.94-6.485a7.983,7.983,0,0,0,2.5-1.105l18.542-12.362,15.867,15.867L130.234,368H72ZM40,384H472a8,8,0,0,1,0,16H40a8,8,0,0,1,0-16Z"/><path d="M433.926,329.46l-8,9.334a8,8,0,1,0,12.148,10.412l8-9.333a8,8,0,1,0-12.148-10.413Z"/><path d="M473.926,282.793l-24,28a8,8,0,0,0,12.148,10.414l24-28a8,8,0,0,0-12.148-10.414Z"/></g></svg>
