<svg id="Layer_1" enable-background="new 0 0 512.161 512.161" height="512" viewBox="0 0 512.161 512.161" width="512" xmlns="http://www.w3.org/2000/svg"><path d="m504.081 496.161h-65.186c30.626-28.896 21.166-78.84-16.244-95.47-.759-.338 5.129 1.425-89.594-26.274.022-10.418.105-19.468.25-27.376h57.654c32.681 0 50.13-37.874 30.178-62.776l-15.21-19.02c-2.759-3.45-7.794-4.011-11.244-1.251-3.451 2.76-4.012 7.794-1.252 11.245l15.215 19.026c11.685 14.583 1.452 36.777-17.687 36.777-131.927 0-122.758.717-125.171-1.675-2.44-2.461-1.709 2.023-1.709-77.545 12.027 6.168 15.975 32.525 16 45.84 0 4.418 3.582 8 8 8h70.48c6.654 0 10.412-7.693 6.292-12.941l-38.479-49.008c-2.727-3.474-7.755-4.083-11.232-1.354-3.476 2.728-4.081 7.757-1.354 11.232l11.898 15.155c-1.841 6.904-3.326 13.387-4.522 20.916h-25.429c-2.106-27.239-12.719-56.688-39.654-55.187-26.943-1.497-37.543 27.898-39.653 55.187h-25.429c-1.196-7.529-2.681-14.011-4.522-20.916l11.898-15.155c2.728-3.476 2.122-8.504-1.354-11.232-3.477-2.729-8.506-2.122-11.232 1.354l-38.479 49.008c-4.109 5.234-.379 12.941 6.292 12.941h70.48c4.412 0 7.992-3.58 8-7.993.025-13.415 3.998-39.692 16-45.847 0 79.466.713 75.102-1.664 77.5-2.477 2.457 7.295 1.72-125.216 1.72-19.126 0-29.381-22.184-17.682-36.783l64.875-81.126c16.331-11.662 35.551-17.82 55.637-17.82 65.067 0 88.846-4.091 119.399 17.389l9.12 11.415c2.758 3.453 7.794 4.015 11.243 1.256 3.452-2.758 4.015-7.792 1.257-11.244-10.431-13.055-10.136-12.883-11.396-13.789-17.692-12.737-38.675-19.972-60.392-20.914 6.625-7.243 8.387-13.133 15.074-28.302 7.024-15.998 10.916-33.475 10.916-51.586 0-18.729-9.699-36.8-27.583-48.063 0-16.485 1.825-28.774-10.425-41.071-22.254-22.164-60.755-6.649-60.755 25.188v15.883c-16.645 10.483-27.583 27.92-27.583 48.063 0 17.732 3.673 35.088 10.921 51.597 7.223 16.385 8.762 21.399 15.082 28.303-22.854 1.028-43.998 8.982-60.851 21.424-1.302.964 2.876-4.023-67.032 83.397-20.372 25.426-1.894 62.782 30.173 62.782h57.654c.145 7.908.227 16.958.25 27.376-94.866 27.741-88.832 25.936-89.589 26.271-37.509 16.646-46.779 66.681-16.208 95.473h-65.226c-4.418 0-8 3.582-8 8s3.582 8 8 8h496c4.418 0 8-3.582 8-8s-3.582-8-8-8zm-165.785-211.353 3.811 4.854h-4.727c.288-1.659.593-3.271.916-4.854zm-164.431 0c.324 1.583.628 3.196.916 4.854h-4.727zm62.626-249.216c0-17.372 21.134-26.131 33.441-13.874 6.721 6.748 5.738 13.654 5.738 22.515-12.718-3.801-26.44-3.807-39.18 0v-8.641zm-14.047 34.395c23.885-21.712 64.863-14.243 77.453 13.904-21.742-4.469-35.454 4.358-46.844 11.703-13.184 8.506-22.923 14.779-44.141 4.218-.001-11.899 5.124-22.182 13.532-29.825zm-12.006 47.874c21.372 7.744 34.614 1.934 51.287-8.821 11.78-7.599 22.08-14.226 41.505-7.698-.427 26.064-9.253 42.691-16.644 59.458-10.822 24.609-50.199 24.584-61.013-.006-7.404-16.795-12.368-26.428-15.135-42.933zm-18.658 354.173c-9.773 4.887-21.317 8.925-25.389 23.967h-12.656v-33.478zm-8.022 23.967c2.804-4.161 2.967-3.551 34.521-19.328.173-.087.558-.302.826-.479 15.014-10.009 17.12-12.469 24.829-12.469 7.949 0 14.975 5.066 17.481 12.606l.867 2.608c1.32 3.968 5.475 6.248 9.532 5.237l86.612-21.653v33.479h-174.668zm-112.777-42.16c0-16.623 9.744-31.528 24.559-38.318l92.717-27.112h86.904c4.418 0 8-3.582 8-8s-3.582-8-8-8h-80.062c-.027-9.558-.108-17.947-.243-25.37h47.434c5.057 0 9.865-1.723 13.786-4.92 3.897 3.186 8.721 4.92 13.794 4.92h47.433c-.198 10.986-.251 22.421-.251 33.41.007 1.554.469 3.111 1.375 4.448 2.325 3.433-3.6.858 98.191 30.624 26.593 12.212 33.005 47.342 12.215 68.132-7.962 7.962-18.55 12.347-29.813 12.347h-24.595v-37.478l7.733-1.933c4.286-1.072 6.893-5.415 5.82-9.702-1.07-4.285-5.407-6.891-9.701-5.821l-103.463 25.865c-9.512-19.357-33.71-24.638-50.655-13.336l-10.953 7.302-79.325-19.831c-4.284-1.068-8.63 1.534-9.701 5.821-1.072 4.287 1.534 8.63 5.82 9.702l7.733 1.933v37.478h-24.593c-23.247-.001-42.159-18.913-42.159-42.161z"/><path d="m373.783 250.66c2.77 3.451 7.804 3.992 11.247 1.23 3.445-2.766 3.995-7.801 1.229-11.247l-1.261-1.57c-2.766-3.446-7.8-3.996-11.247-1.23-3.445 2.766-3.995 7.801-1.229 11.247z"/></svg>