<?xml version="1.0" encoding="iso-8859-1"?>
<!-- Generator: Adobe Illustrator 19.0.0, SVG Export Plug-In . SVG Version: 6.00 Build 0)  -->
<svg version="1.1" id="Capa_1" xmlns="http://www.w3.org/2000/svg" xmlns:xlink="http://www.w3.org/1999/xlink" x="0px" y="0px"
	 viewBox="0 0 197.371 197.371" style="enable-background:new 0 0 197.371 197.371;" xml:space="preserve">
<g>
	<g>
		<path d="M170.085,60.896c-0.744-0.945-1.459-1.853-2.138-2.729c-6.579-8.479-9.921-17.923-12.87-26.255
			c-2.099-5.932-3.912-11.056-6.554-14.725c-7.221-10.032-34.444-14.09-40.311-13.908c-6.407,0.189-9.064,5.675-9.873,10.086
			c-1.932,0.538-4.46,1.659-6.685,3.994c-5.688,5.97,3.343,20.116,11.237,27.796c6.315,6.144,10.667,5.85,14.507,5.594
			c1.729-0.114,3.36-0.227,5.388,0.236c4.738,1.073,9.339,4.782,11.358,6.584c-1.84,31.985,3.48,47.734,5.81,54.566
			c-1.814-0.189-4.314-0.616-6.803-1.179C119.373,85.46,90.821,88.735,82.137,90.411C69.75,71.348,48.659,65.031,32.668,65.543
			c-14.836,0.48-24.247-0.469-24.339-0.48c-1.589-0.166-3.069,0.785-3.584,2.29c-0.48,1.403-11.597,34.731,1.958,67.307
			c13.162,31.63,28.805,57.535,28.962,57.793c0.642,1.058,1.768,1.643,2.922,1.643c0.596,0,1.2-0.157,1.746-0.483
			c15.447-9.231,22.033-21.419,24.496-27.462c30.732,12.018,63.654,7.659,86.212,1.72c25.194-6.634,42.742-16.34,43.477-16.749
			c0.942-0.526,1.579-1.468,1.72-2.536C202.372,101.897,182.161,76.23,170.085,60.896z M189.689,145.951
			c-10.433,5.369-72.924,35.345-125.537,12.535c-0.922-0.399-1.971-0.374-2.869,0.072c-0.899,0.445-1.558,1.263-1.801,2.236
			c-0.038,0.15-3.712,14.23-19.75,25.11c-4.425-7.636-16.357-28.942-26.726-53.867c-10.501-25.235-4.751-51.797-2.543-59.953
			c3.941,0.268,11.781,0.63,22.427,0.275c14.621-0.48,34.028,5.485,44.677,23.629c0.787,1.341,2.379,1.98,3.874,1.556
			c0.328-0.096,32.969-8.986,46.345,17.884c0.445,0.894,1.259,1.548,2.227,1.79c13.621,3.405,15.597,1.205,16.546,0.147
			c1.734-1.934,0.998-4.093-0.116-7.361c-2.222-6.518-7.424-21.777-5.386-53.617c0.061-0.968-0.292-1.915-0.969-2.608
			c-0.302-0.307-7.504-7.581-15.79-9.46c-3-0.679-5.415-0.519-7.354-0.387c-3.323,0.222-5.156,0.346-9.289-3.676
			c-7.381-7.182-11.498-16.159-10.941-18.311c2.113-2.123,4.729-2.253,4.801-2.256c1.84-0.026,3.33-1.521,3.366-3.362
			c0.002-0.06,0.159-6.129,3.538-6.229c7.141-0.212,29.914,4.608,34.569,11.073c2.072,2.879,3.734,7.574,5.658,13.013
			c2.964,8.383,6.658,18.814,13.911,28.163c0.688,0.887,1.415,1.809,2.169,2.768C176.71,80.337,194.743,103.232,189.689,145.951z"/>
	</g>
</g>
<g>
	<g>
		<path d="M99.025,54.47c-1.884,0-3.413,1.529-3.413,3.413v54.613c0,1.884,1.529,3.413,3.413,3.413c1.886,0,3.413-1.529,3.413-3.413
			V57.884C102.438,56,100.909,54.47,99.025,54.47z"/>
	</g>
</g>
<g>
	<g>
		<path d="M118.504,69.124l-17.067-17.067c-1.331-1.333-3.495-1.333-4.826,0L79.545,69.124c-1.333,1.333-1.333,3.494,0,4.826
			c1.331,1.333,3.495,1.333,4.826,0l14.653-14.652l14.653,14.652c0.666,0.667,1.539,1,2.413,1s1.748-0.334,2.413-1
			C119.837,72.617,119.837,70.457,118.504,69.124z"/>
	</g>
</g>
<g>
	<g>
		<path d="M44.411,30.577c-1.884,0-3.413,1.529-3.413,3.413v54.613c0,1.884,1.529,3.413,3.413,3.413
			c1.886,0,3.413-1.529,3.413-3.413V33.99C47.824,32.106,46.295,30.577,44.411,30.577z"/>
	</g>
</g>
<g>
	<g>
		<path d="M63.891,45.23L46.824,28.164c-1.331-1.333-3.495-1.333-4.826,0L24.931,45.23c-1.333,1.333-1.333,3.494,0,4.826
			c1.331,1.333,3.495,1.333,4.826,0l14.653-14.652l14.653,14.652c0.666,0.667,1.539,1,2.413,1s1.748-0.335,2.413-1
			C65.224,48.724,65.224,46.563,63.891,45.23z"/>
	</g>
</g>
<g>
	<g>
		<path d="M136.052,137.996c-0.998-1.597-3.103-2.086-4.704-1.085c-24.781,15.483-60.394-16.377-60.749-16.7
			c-1.398-1.268-3.555-1.162-4.821,0.232s-1.164,3.552,0.23,4.82c0.398,0.36,9.885,8.924,22.956,15.461
			c9.649,4.825,18.727,7.243,26.964,7.243c7.013,0,13.414-1.754,19.038-5.267C136.566,141.7,137.051,139.595,136.052,137.996z"/>
	</g>
</g>
<g>
	<g>
		<path d="M88.411,104.114l-8.75-17.082c-0.86-1.679-2.922-2.343-4.594-1.483c-1.679,0.86-2.342,2.917-1.483,4.594l8.75,17.082
			c0.606,1.181,1.801,1.859,3.041,1.859c0.524,0,1.055-0.121,1.553-0.375C88.607,107.848,89.269,105.792,88.411,104.114z"/>
	</g>
</g>
<g>
</g>
<g>
</g>
<g>
</g>
<g>
</g>
<g>
</g>
<g>
</g>
<g>
</g>
<g>
</g>
<g>
</g>
<g>
</g>
<g>
</g>
<g>
</g>
<g>
</g>
<g>
</g>
<g>
</g>
</svg>
